<?xml version="1.0" encoding="UTF-8"?>
<svg xmlns="http://www.w3.org/2000/svg" xmlns:xlink="http://www.w3.org/1999/xlink" width="10pt" height="10pt" viewBox="0 0 10 10" version="1.1">
<defs>
<linearGradient id="linear0" gradientUnits="userSpaceOnUse" x1="165.96875" y1="175.97278" x2="165.96875" y2="201.28831" gradientTransform="matrix(0.0442478,0,0,0.0442478,0,0)">
<stop offset="0" style="stop-color:rgb(98.823529%,95.294118%,99.215686%);stop-opacity:1;"/>
<stop offset="1" style="stop-color:rgb(43.137255%,85.490196%,98.823529%);stop-opacity:1;"/>
</linearGradient>
<linearGradient id="linear1" gradientUnits="userSpaceOnUse" x1="121.814" y1="17.79397" x2="125.34525" y2="206.71584" gradientTransform="matrix(0.0442478,0,0,0.0442478,0,0)">
<stop offset="0" style="stop-color:rgb(87.843137%,56.470588%,94.117647%);stop-opacity:1;"/>
<stop offset="1" style="stop-color:rgb(1.960784%,74.117647%,96.078431%);stop-opacity:1;"/>
</linearGradient>
<linearGradient id="linear2" gradientUnits="userSpaceOnUse" x1="142.99444" y1="17.39847" x2="146.52569" y2="206.32034" gradientTransform="matrix(0.0442478,0,0,0.0442478,0,0)">
<stop offset="0" style="stop-color:rgb(87.843137%,56.470588%,94.117647%);stop-opacity:1;"/>
<stop offset="1" style="stop-color:rgb(1.960784%,74.117647%,96.078431%);stop-opacity:1;"/>
</linearGradient>
<linearGradient id="linear3" gradientUnits="userSpaceOnUse" x1="164.17487" y1="17.00297" x2="167.70612" y2="205.92484" gradientTransform="matrix(0.0442478,0,0,0.0442478,0,0)">
<stop offset="0" style="stop-color:rgb(87.843137%,56.470588%,94.117647%);stop-opacity:1;"/>
<stop offset="1" style="stop-color:rgb(1.960784%,74.117647%,96.078431%);stop-opacity:1;"/>
</linearGradient>
<linearGradient id="linear4" gradientUnits="userSpaceOnUse" x1="111.19906" y1="17.99525" x2="114.73031" y2="206.91359" gradientTransform="matrix(0.0442478,0,0,0.0442478,0,0)">
<stop offset="0" style="stop-color:rgb(87.843137%,56.470588%,94.117647%);stop-opacity:1;"/>
<stop offset="1" style="stop-color:rgb(1.960784%,74.117647%,96.078431%);stop-opacity:1;"/>
</linearGradient>
</defs>
<g id="surface20902415">
<path style=" stroke:none;fill-rule:nonzero;fill:url(#linear0);" d="M 7.5 8.75 L 7.03125 8.75 L 7.03125 8.125 C 7.03125 8.039062 7.101562 7.96875 7.1875 7.96875 L 7.5 7.96875 C 7.585938 7.96875 7.65625 8.039062 7.65625 8.125 L 7.65625 8.59375 C 7.65625 8.679688 7.585938 8.75 7.5 8.75 Z M 7.5 8.75 "/>
<path style=" stroke:none;fill-rule:nonzero;fill:url(#linear1);" d="M 5.15625 4.84375 L 5.78125 4.84375 L 5.78125 5.15625 L 5.15625 5.15625 Z M 5.15625 4.84375 "/>
<path style=" stroke:none;fill-rule:nonzero;fill:url(#linear2);" d="M 6.09375 4.84375 L 6.71875 4.84375 L 6.71875 5.15625 L 6.09375 5.15625 Z M 6.09375 4.84375 "/>
<path style=" stroke:none;fill-rule:nonzero;fill:url(#linear3);" d="M 7.03125 4.84375 L 7.65625 4.84375 L 7.65625 5.15625 L 7.03125 5.15625 Z M 7.03125 4.84375 "/>
<path style=" stroke:none;fill-rule:nonzero;fill:url(#linear4);" d="M 7.617188 3.828125 C 7.421875 3.820312 7.234375 3.886719 7.09375 4.019531 C 7.070312 4.042969 7.050781 4.070312 7.03125 4.09375 C 6.902344 3.933594 6.707031 3.828125 6.484375 3.828125 C 6.261719 3.828125 6.066406 3.933594 5.9375 4.09375 C 5.808594 3.933594 5.613281 3.828125 5.390625 3.828125 C 5.246094 3.828125 5.15625 3.871094 5 3.945312 L 5 1.671875 C 5 1.28125 4.707031 0.957031 4.335938 0.9375 C 4.136719 0.929688 3.953125 0.996094 3.8125 1.128906 C 3.671875 1.261719 3.59375 1.449219 3.59375 1.640625 L 3.59375 5.332031 C 3.59375 5.429688 3.519531 5.46875 3.496094 5.476562 C 3.476562 5.484375 3.394531 5.511719 3.328125 5.441406 L 2.960938 5.074219 C 2.679688 4.792969 2.238281 4.773438 1.957031 5.027344 C 1.808594 5.160156 1.722656 5.339844 1.71875 5.539062 C 1.714844 5.734375 1.789062 5.925781 1.929688 6.0625 L 3.59375 7.730469 L 3.59375 8.59375 C 3.59375 8.851562 3.804688 9.0625 4.0625 9.0625 L 7.5 9.0625 C 7.757812 9.0625 7.96875 8.851562 7.96875 8.59375 L 7.96875 8.125 C 7.96875 8.078125 7.957031 8.03125 7.9375 7.992188 C 8.148438 7.851562 8.28125 7.609375 8.28125 7.347656 L 8.28125 4.5625 C 8.28125 4.171875 7.988281 3.847656 7.617188 3.828125 Z M 7.5 8.75 L 4.0625 8.75 C 3.976562 8.75 3.90625 8.679688 3.90625 8.59375 L 3.90625 8.125 L 7.503906 8.125 C 7.554688 8.125 7.65625 8.117188 7.65625 8.109375 L 7.65625 8.59375 C 7.65625 8.679688 7.585938 8.75 7.5 8.75 Z M 7.96875 7.347656 C 7.96875 7.558594 7.824219 7.746094 7.617188 7.796875 C 7.582031 7.808594 7.542969 7.8125 7.503906 7.8125 L 3.90625 7.8125 L 3.90625 7.597656 L 2.148438 5.84375 C 2.070312 5.761719 2.027344 5.660156 2.03125 5.546875 C 2.035156 5.4375 2.082031 5.332031 2.164062 5.257812 C 2.320312 5.117188 2.578125 5.136719 2.738281 5.296875 L 3.105469 5.664062 C 3.242188 5.800781 3.4375 5.839844 3.617188 5.765625 C 3.796875 5.691406 3.90625 5.527344 3.90625 5.332031 L 3.90625 1.640625 C 3.90625 1.53125 3.949219 1.433594 4.027344 1.355469 C 4.105469 1.28125 4.210938 1.242188 4.316406 1.25 C 4.523438 1.261719 4.6875 1.449219 4.6875 1.671875 L 4.6875 4.53125 L 5 4.53125 C 5 4.375 5.175781 4.140625 5.390625 4.140625 C 5.605469 4.140625 5.78125 4.375 5.78125 4.53125 L 6.09375 4.53125 C 6.09375 4.375 6.269531 4.140625 6.484375 4.140625 C 6.699219 4.140625 6.875 4.375 6.875 4.53125 L 7.1875 4.53125 C 7.1875 4.375 7.230469 4.324219 7.308594 4.246094 C 7.386719 4.171875 7.492188 4.136719 7.597656 4.140625 C 7.804688 4.152344 7.96875 4.339844 7.96875 4.5625 Z M 7.96875 7.347656 "/>
</g>
</svg>
