<svg xmlns="http://www.w3.org/2000/svg" viewBox="0 0 64 64" width="64px" height="64px"><linearGradient id="bqu650gl6yDWcBaLvVXP0a" x1="47" x2="47" y1="49.833" y2="57.002" gradientUnits="userSpaceOnUse" spreadMethod="reflect"><stop offset="0" stop-color="#6dc7ff"/><stop offset="1" stop-color="#e6abff"/></linearGradient><path fill="url(#bqu650gl6yDWcBaLvVXP0a)" d="M48,56h-3v-4c0-0.552,0.448-1,1-1h2c0.552,0,1,0.448,1,1v3C49,55.553,48.552,56,48,56z"/><linearGradient id="bqu650gl6yDWcBaLvVXP0b" x1="34.496" x2="35.496" y1="5.039" y2="58.539" gradientUnits="userSpaceOnUse" spreadMethod="reflect"><stop offset="0" stop-color="#1a6dff"/><stop offset="1" stop-color="#c822ff"/></linearGradient><path fill="url(#bqu650gl6yDWcBaLvVXP0b)" d="M33 31H37V33H33z"/><linearGradient id="bqu650gl6yDWcBaLvVXP0c" x1="40.494" x2="41.494" y1="4.927" y2="58.427" gradientUnits="userSpaceOnUse" spreadMethod="reflect"><stop offset="0" stop-color="#1a6dff"/><stop offset="1" stop-color="#c822ff"/></linearGradient><path fill="url(#bqu650gl6yDWcBaLvVXP0c)" d="M39 31H43V33H39z"/><linearGradient id="bqu650gl6yDWcBaLvVXP0d" x1="46.492" x2="47.492" y1="4.815" y2="58.315" gradientUnits="userSpaceOnUse" spreadMethod="reflect"><stop offset="0" stop-color="#1a6dff"/><stop offset="1" stop-color="#c822ff"/></linearGradient><path fill="url(#bqu650gl6yDWcBaLvVXP0d)" d="M45 31H49V33H45z"/><linearGradient id="bqu650gl6yDWcBaLvVXP0e" x1="31.49" x2="32.49" y1="5.096" y2="58.595" gradientUnits="userSpaceOnUse" spreadMethod="reflect"><stop offset="0" stop-color="#1a6dff"/><stop offset="1" stop-color="#c822ff"/></linearGradient><path fill="url(#bqu650gl6yDWcBaLvVXP0e)" d="M48.74,24.506c-1.248-0.052-2.434,0.371-3.337,1.229c-0.151,0.144-0.275,0.309-0.403,0.471 c-0.825-1.031-2.079-1.706-3.5-1.706c-1.421,0-2.675,0.675-3.5,1.707c-0.825-1.032-2.079-1.707-3.5-1.707 c-0.925,0-1.5,0.282-2.5,0.762V10.699c0-2.505-1.871-4.566-4.259-4.692c-1.258-0.066-2.435,0.372-3.338,1.23 C23.511,8.082,23,9.272,23,10.5v23.632c0,0.617-0.47,0.86-0.614,0.92s-0.649,0.22-1.085-0.216l-2.354-2.354 c-1.799-1.8-4.623-1.936-6.43-0.311c-0.943,0.85-1.481,2.015-1.514,3.28c-0.033,1.247,0.455,2.469,1.337,3.352L23,49.464V50v2v3 c0,1.654,1.346,3,3,3h19h2h1c1.654,0,3-1.345,3-3v-3c0-0.306-0.075-0.594-0.198-0.854C52.146,50.241,53,48.711,53,47.015V29.199 C53,26.694,51.129,24.632,48.74,24.506z M48,56h-1h-2H26c-0.551,0-1-0.448-1-1v-3h23.015C48.346,52,49,51.958,49,51.893V55 C49,55.552,48.551,56,48,56z M51,47.015c0,1.367-0.924,2.556-2.247,2.893C48.513,49.969,48.264,50,48.015,50H25v-1.364 L13.753,37.389c-0.503-0.504-0.77-1.173-0.752-1.886c0.019-0.711,0.322-1.367,0.853-1.846c0.999-0.898,2.648-0.79,3.678,0.238 l2.354,2.354c0.874,0.874,2.125,1.121,3.265,0.649C24.292,36.427,25,35.367,25,34.132V10.5c0-0.692,0.277-1.337,0.779-1.813 s1.162-0.735,1.856-0.683C28.939,8.073,30,9.282,30,10.699V29h2c0-1,1.122-2.5,2.5-2.5S37,28,37,29h2c0-1,1.122-2.5,2.5-2.5 S44,28,44,29h2c0-1,0.277-1.337,0.779-1.813c0.503-0.477,1.166-0.721,1.856-0.683C49.939,26.573,51,27.782,51,29.199V47.015z"/></svg>