<?xml version="1.0" encoding="UTF-8"?>
<svg xmlns="http://www.w3.org/2000/svg" xmlns:xlink="http://www.w3.org/1999/xlink" width="64pt" height="64pt" viewBox="0 0 64 64" version="1.1">
<defs>
<linearGradient id="linear0" gradientUnits="userSpaceOnUse" x1="165.96875" y1="175.97278" x2="165.96875" y2="201.28831" gradientTransform="matrix(0.283186,0,0,0.283186,0,0)">
<stop offset="0" style="stop-color:rgb(43.921569%,87.45098%,100%);stop-opacity:1;"/>
<stop offset="1" style="stop-color:rgb(43.921569%,68.627451%,100%);stop-opacity:1;"/>
</linearGradient>
<linearGradient id="linear1" gradientUnits="userSpaceOnUse" x1="121.814" y1="17.79397" x2="125.34525" y2="206.71584" gradientTransform="matrix(0.283186,0,0,0.283186,0,0)">
<stop offset="0" style="stop-color:rgb(0%,77.647059%,100%);stop-opacity:1;"/>
<stop offset="1" style="stop-color:rgb(0%,44.705882%,100%);stop-opacity:1;"/>
</linearGradient>
<linearGradient id="linear2" gradientUnits="userSpaceOnUse" x1="142.99444" y1="17.39847" x2="146.52569" y2="206.32034" gradientTransform="matrix(0.283186,0,0,0.283186,0,0)">
<stop offset="0" style="stop-color:rgb(0%,77.647059%,100%);stop-opacity:1;"/>
<stop offset="1" style="stop-color:rgb(0%,44.705882%,100%);stop-opacity:1;"/>
</linearGradient>
<linearGradient id="linear3" gradientUnits="userSpaceOnUse" x1="164.17487" y1="17.00297" x2="167.70612" y2="205.92484" gradientTransform="matrix(0.283186,0,0,0.283186,0,0)">
<stop offset="0" style="stop-color:rgb(0%,77.647059%,100%);stop-opacity:1;"/>
<stop offset="1" style="stop-color:rgb(0%,44.705882%,100%);stop-opacity:1;"/>
</linearGradient>
<linearGradient id="linear4" gradientUnits="userSpaceOnUse" x1="111.19906" y1="17.99525" x2="114.73031" y2="206.91359" gradientTransform="matrix(0.283186,0,0,0.283186,0,0)">
<stop offset="0" style="stop-color:rgb(0%,77.647059%,100%);stop-opacity:1;"/>
<stop offset="1" style="stop-color:rgb(0%,44.705882%,100%);stop-opacity:1;"/>
</linearGradient>
</defs>
<g id="surface20909142">
<path style=" stroke:none;fill-rule:nonzero;fill:url(#linear0);" d="M 48 56 L 45 56 L 45 52 C 45 51.449219 45.449219 51 46 51 L 48 51 C 48.550781 51 49 51.449219 49 52 L 49 55 C 49 55.554688 48.550781 56 48 56 Z M 48 56 "/>
<path style=" stroke:none;fill-rule:nonzero;fill:url(#linear1);" d="M 33 31 L 37 31 L 37 33 L 33 33 Z M 33 31 "/>
<path style=" stroke:none;fill-rule:nonzero;fill:url(#linear2);" d="M 39 31 L 43 31 L 43 33 L 39 33 Z M 39 31 "/>
<path style=" stroke:none;fill-rule:nonzero;fill:url(#linear3);" d="M 45 31 L 49 31 L 49 33 L 45 33 Z M 45 31 "/>
<path style=" stroke:none;fill-rule:nonzero;fill:url(#linear4);" d="M 48.738281 24.507812 C 47.492188 24.453125 46.304688 24.878906 45.402344 25.734375 C 45.253906 25.878906 45.128906 26.042969 45 26.207031 C 44.175781 25.175781 42.921875 24.5 41.5 24.5 C 40.078125 24.5 38.824219 25.175781 38 26.207031 C 37.175781 25.175781 35.921875 24.5 34.5 24.5 C 33.574219 24.5 33 24.78125 32 25.261719 L 32 10.699219 C 32 8.195312 30.128906 6.132812 27.742188 6.007812 C 26.484375 5.941406 25.304688 6.378906 24.402344 7.238281 C 23.511719 8.082031 23 9.273438 23 10.5 L 23 34.132812 C 23 34.75 22.53125 34.992188 22.386719 35.050781 C 22.242188 35.113281 21.738281 35.273438 21.300781 34.835938 L 18.945312 32.480469 C 17.148438 30.683594 14.324219 30.546875 12.515625 32.171875 C 11.574219 33.019531 11.035156 34.1875 11.003906 35.449219 C 10.96875 36.699219 11.457031 37.921875 12.339844 38.804688 L 23 49.464844 L 23 55 C 23 56.652344 24.347656 58 26 58 L 48 58 C 49.652344 58 51 56.65625 51 55 L 51 52 C 51 51.695312 50.925781 51.40625 50.800781 51.144531 C 52.144531 50.242188 53 48.710938 53 47.015625 L 53 29.199219 C 53 26.695312 51.128906 24.632812 48.738281 24.507812 Z M 48 56 L 26 56 C 25.449219 56 25 55.550781 25 55 L 25 52 L 48.015625 52 C 48.347656 52 49 51.957031 49 51.894531 L 49 55 C 49 55.550781 48.550781 56 48 56 Z M 51 47.015625 C 51 48.382812 50.074219 49.570312 48.753906 49.90625 C 48.511719 49.96875 48.265625 50 48.015625 50 L 25 50 L 25 48.636719 L 13.753906 37.390625 C 13.25 36.886719 12.984375 36.214844 13 35.503906 C 13.019531 34.792969 13.324219 34.136719 13.855469 33.65625 C 14.851562 32.757812 16.503906 32.867188 17.53125 33.894531 L 19.886719 36.25 C 20.761719 37.121094 22.011719 37.371094 23.152344 36.898438 C 24.292969 36.425781 25 35.367188 25 34.132812 L 25 10.5 C 25 9.808594 25.277344 9.164062 25.777344 8.6875 C 26.28125 8.210938 26.941406 7.953125 27.636719 8.003906 C 28.9375 8.074219 30 9.28125 30 10.699219 L 30 29 L 32 29 C 32 28 33.121094 26.5 34.5 26.5 C 35.878906 26.5 37 28 37 29 L 39 29 C 39 28 40.121094 26.5 41.5 26.5 C 42.878906 26.5 44 28 44 29 L 46 29 C 46 28 46.277344 27.664062 46.777344 27.1875 C 47.28125 26.710938 47.945312 26.464844 48.636719 26.503906 C 49.9375 26.574219 51 27.78125 51 29.199219 Z M 51 47.015625 "/>
</g>
</svg>
